<?xml version="1.0" standalone="no"?>
<!DOCTYPE svg PUBLIC "-//W3C//DTD SVG 20010904//EN"
 "http://www.w3.org/TR/2001/REC-SVG-20010904/DTD/svg10.dtd">
<svg version="1.0" xmlns="http://www.w3.org/2000/svg"
 width="256.000000pt" height="256.000000pt" viewBox="0 0 256.000000 256.000000"
 preserveAspectRatio="xMidYMid meet">
<metadata>
Created by potrace 1.11, written by Peter Selinger 2001-2013
</metadata>
<g transform="translate(0.000000,256.000000) scale(0.100000,-0.100000)"
fill="#000000" stroke="none">
<path d="M1117 2443 c-268 -54 -456 -286 -457 -563 0 -41 4 -90 9 -108 9 -31
7 -36 -37 -81 -81 -82 -79 -78 -48 -110 l27 -28 -305 -305 -305 -305 5 -104
c8 -160 9 -167 14 -173 3 -3 65 -7 137 -9 l132 -4 31 32 c17 18 31 39 30 46
-2 8 -2 42 -1 77 l1 62 78 0 c71 0 81 2 102 25 20 22 23 35 23 97 -1 40 3 75
8 78 4 3 40 5 78 4 l70 -1 92 93 c50 52 94 94 97 94 3 0 18 -12 33 -26 l28
-27 63 62 c53 53 66 61 88 55 48 -13 178 -13 236 1 l59 14 32 -37 31 -37 -162
-165 c-196 -200 -211 -224 -211 -355 0 -136 16 -161 240 -385 102 -102 206
-197 232 -212 64 -37 155 -51 228 -36 92 19 124 45 417 337 332 331 342 345
342 486 1 102 -27 165 -112 257 l-62 65 43 55 c150 193 166 475 40 691 -44 75
-129 162 -205 211 -142 90 -334 117 -503 70 l-88 -25 -26 24 c-64 58 -79 70
-126 97 -120 68 -262 90 -398 63z m323 -207 c31 -10 90 -48 90 -59 0 -5 -17
-25 -39 -45 -21 -20 -52 -56 -69 -80 l-30 -42 -86 86 c-47 48 -83 91 -80 96 8
13 65 40 99 48 35 8 80 6 115 -4z m615 -7 c217 -49 397 -244 422 -458 21 -173
-15 -309 -116 -438 l-25 -32 -117 113 c-137 134 -186 159 -306 158 -108 0
-160 -28 -292 -157 l-109 -106 -21 27 -21 27 61 36 c157 92 267 285 270 472 1
108 -14 175 -62 272 l-29 58 32 13 c18 8 53 17 77 20 24 3 46 7 48 9 7 7 139
-3 188 -14z m-469 -141 c13 -41 5 -111 -18 -157 -13 -25 -28 -47 -34 -48 -7
-2 -30 15 -53 38 l-41 42 19 29 c28 46 95 118 108 118 6 0 15 -10 19 -22z
m486 -865 c59 -59 66 -68 46 -69 -13 -1 -50 -7 -83 -14 l-59 -12 -33 36 c-38
42 -42 77 -11 106 38 35 64 26 140 -47z m162 -163 c51 -55 58 -88 26 -120 -36
-36 -66 -26 -146 52 -41 39 -71 74 -68 77 7 7 105 39 125 40 9 1 37 -21 63
-49z"/>
</g>
</svg>
